<mxfile host="app.diagrams.net" modified="2024-01-22T20:08:05.986Z" agent="Mozilla/5.0 (Windows NT 10.0; Win64; x64) AppleWebKit/537.36 (KHTML, like Gecko) Chrome/120.0.0.0 Safari/537.36" etag="bNp5DYUqOmK7aM8failk" version="22.1.21" type="github">
  <diagram name="Page-1" id="XPWBldzVZ3_sg0biQuVv">
    <mxGraphModel dx="1050" dy="522" grid="1" gridSize="10" guides="1" tooltips="1" connect="1" arrows="1" fold="1" page="1" pageScale="1" pageWidth="850" pageHeight="1100" math="0" shadow="0">
      <root>
        <mxCell id="0" />
        <mxCell id="1" parent="0" />
        <mxCell id="AIyhHVRQRcBTdbYzzXI3-4" value="" style="sketch=0;pointerEvents=1;shadow=0;dashed=0;html=1;strokeColor=none;fillColor=#000000;labelPosition=center;verticalLabelPosition=bottom;verticalAlign=top;outlineConnect=0;align=center;shape=mxgraph.office.users.tenant_admin;" parent="1" vertex="1">
          <mxGeometry x="81.5" y="160" width="38.5" height="40" as="geometry" />
        </mxCell>
        <mxCell id="AIyhHVRQRcBTdbYzzXI3-5" value="" style="sketch=0;pointerEvents=1;shadow=0;dashed=0;html=1;strokeColor=none;labelPosition=center;verticalLabelPosition=bottom;verticalAlign=top;align=center;fillColor=#000000;shape=mxgraph.mscae.intune.user_management" parent="1" vertex="1">
          <mxGeometry x="77.8" y="275" width="40" height="40" as="geometry" />
        </mxCell>
        <mxCell id="AIyhHVRQRcBTdbYzzXI3-6" value="" style="sketch=0;aspect=fixed;pointerEvents=1;shadow=0;dashed=0;html=1;strokeColor=none;labelPosition=center;verticalLabelPosition=bottom;verticalAlign=top;align=center;fillColor=#000000;shape=mxgraph.azure.user" parent="1" vertex="1">
          <mxGeometry x="79" y="520" width="37.6" height="40" as="geometry" />
        </mxCell>
        <mxCell id="AIyhHVRQRcBTdbYzzXI3-7" value="Employee" style="text;html=1;strokeColor=none;fillColor=none;align=center;verticalAlign=middle;whiteSpace=wrap;rounded=0;" parent="1" vertex="1">
          <mxGeometry x="71" y="560" width="60" height="30" as="geometry" />
        </mxCell>
        <mxCell id="AIyhHVRQRcBTdbYzzXI3-8" value="Manager (Departmental)&lt;span id=&quot;docs-internal-guid-f4431b39-7fff-cfa4-a716-81f54698d911&quot;&gt;&lt;/span&gt;" style="text;html=1;strokeColor=none;fillColor=none;align=center;verticalAlign=middle;whiteSpace=wrap;rounded=0;" parent="1" vertex="1">
          <mxGeometry x="71" y="320" width="60" height="30" as="geometry" />
        </mxCell>
        <mxCell id="AIyhHVRQRcBTdbYzzXI3-9" value="Administrator" style="text;html=1;strokeColor=none;fillColor=none;align=center;verticalAlign=middle;whiteSpace=wrap;rounded=0;" parent="1" vertex="1">
          <mxGeometry x="70.25" y="200" width="61" height="30" as="geometry" />
        </mxCell>
        <mxCell id="AIyhHVRQRcBTdbYzzXI3-10" value="" style="sketch=0;pointerEvents=1;shadow=0;dashed=0;html=1;strokeColor=none;labelPosition=center;verticalLabelPosition=bottom;verticalAlign=top;align=center;fillColor=#000000;shape=mxgraph.mscae.intune.user_management" parent="1" vertex="1">
          <mxGeometry x="79" y="400" width="40" height="40" as="geometry" />
        </mxCell>
        <mxCell id="AIyhHVRQRcBTdbYzzXI3-11" value="Manager (Change)" style="text;html=1;strokeColor=none;fillColor=none;align=center;verticalAlign=middle;whiteSpace=wrap;rounded=0;" parent="1" vertex="1">
          <mxGeometry x="70" y="440" width="60" height="30" as="geometry" />
        </mxCell>
        <mxCell id="AIyhHVRQRcBTdbYzzXI3-12" value="" style="points=[[0.35,0,0],[0.98,0.51,0],[1,0.71,0],[0.67,1,0],[0,0.795,0],[0,0.65,0]];verticalLabelPosition=bottom;sketch=0;html=1;verticalAlign=top;aspect=fixed;align=center;pointerEvents=1;shape=mxgraph.cisco19.user;fillColor=#000000;strokeColor=none;" parent="1" vertex="1">
          <mxGeometry x="81.5" y="640" width="40" height="40" as="geometry" />
        </mxCell>
        <mxCell id="AIyhHVRQRcBTdbYzzXI3-13" value="Coordinator" style="text;html=1;strokeColor=none;fillColor=none;align=center;verticalAlign=middle;whiteSpace=wrap;rounded=0;" parent="1" vertex="1">
          <mxGeometry x="71.5" y="680" width="60" height="30" as="geometry" />
        </mxCell>
        <mxCell id="AIyhHVRQRcBTdbYzzXI3-14" value="" style="points=[[0.35,0,0],[0.98,0.51,0],[1,0.71,0],[0.67,1,0],[0,0.795,0],[0,0.65,0]];verticalLabelPosition=bottom;sketch=0;html=1;verticalAlign=top;aspect=fixed;align=center;pointerEvents=1;shape=mxgraph.cisco19.user;fillColor=#7EA6E0;strokeColor=none;" parent="1" vertex="1">
          <mxGeometry x="81.5" y="760" width="40" height="40" as="geometry" />
        </mxCell>
        <mxCell id="AIyhHVRQRcBTdbYzzXI3-15" value="Client" style="text;html=1;strokeColor=none;fillColor=none;align=center;verticalAlign=middle;whiteSpace=wrap;rounded=0;" parent="1" vertex="1">
          <mxGeometry x="71.5" y="800" width="60" height="30" as="geometry" />
        </mxCell>
        <mxCell id="AIyhHVRQRcBTdbYzzXI3-16" value="Manage the project" style="ellipse;whiteSpace=wrap;html=1;" parent="1" vertex="1">
          <mxGeometry x="240" y="155" width="240" height="50" as="geometry" />
        </mxCell>
        <mxCell id="AIyhHVRQRcBTdbYzzXI3-17" value="" style="endArrow=none;html=1;rounded=0;entryX=0;entryY=0.5;entryDx=0;entryDy=0;" parent="1" source="AIyhHVRQRcBTdbYzzXI3-4" target="AIyhHVRQRcBTdbYzzXI3-16" edge="1">
          <mxGeometry width="50" height="50" relative="1" as="geometry">
            <mxPoint x="170" y="320" as="sourcePoint" />
            <mxPoint x="220" y="270" as="targetPoint" />
          </mxGeometry>
        </mxCell>
        <mxCell id="AIyhHVRQRcBTdbYzzXI3-21" value="Approve changes" style="ellipse;whiteSpace=wrap;html=1;" parent="1" vertex="1">
          <mxGeometry x="240" y="270" width="240" height="50" as="geometry" />
        </mxCell>
        <mxCell id="AIyhHVRQRcBTdbYzzXI3-22" value="Resend Email Client" style="ellipse;whiteSpace=wrap;html=1;" parent="1" vertex="1">
          <mxGeometry x="240" y="410" width="240" height="50" as="geometry" />
        </mxCell>
        <mxCell id="AIyhHVRQRcBTdbYzzXI3-23" value="Resend Email Client" style="ellipse;whiteSpace=wrap;html=1;" parent="1" vertex="1">
          <mxGeometry x="240" y="490" width="240" height="50" as="geometry" />
        </mxCell>
        <mxCell id="R5wTr4oMpr8X-MJHOzSV-2" value="" style="endArrow=none;html=1;rounded=0;exitX=0.96;exitY=0.5;exitDx=0;exitDy=0;entryX=0;entryY=0.5;entryDx=0;entryDy=0;exitPerimeter=0;" edge="1" parent="1" source="AIyhHVRQRcBTdbYzzXI3-5" target="AIyhHVRQRcBTdbYzzXI3-21">
          <mxGeometry width="50" height="50" relative="1" as="geometry">
            <mxPoint x="190" y="320" as="sourcePoint" />
            <mxPoint x="299" y="275" as="targetPoint" />
          </mxGeometry>
        </mxCell>
        <mxCell id="R5wTr4oMpr8X-MJHOzSV-3" value="Counslut the changes" style="ellipse;whiteSpace=wrap;html=1;" vertex="1" parent="1">
          <mxGeometry x="240" y="210" width="240" height="50" as="geometry" />
        </mxCell>
        <mxCell id="R5wTr4oMpr8X-MJHOzSV-4" value="" style="endArrow=none;html=1;rounded=0;entryX=0;entryY=0.5;entryDx=0;entryDy=0;" edge="1" parent="1" source="AIyhHVRQRcBTdbYzzXI3-4" target="R5wTr4oMpr8X-MJHOzSV-3">
          <mxGeometry width="50" height="50" relative="1" as="geometry">
            <mxPoint x="141" y="210" as="sourcePoint" />
            <mxPoint x="250" y="165" as="targetPoint" />
          </mxGeometry>
        </mxCell>
        <mxCell id="R5wTr4oMpr8X-MJHOzSV-6" value="" style="endArrow=none;html=1;rounded=0;exitX=0.79;exitY=0.39;exitDx=0;exitDy=0;entryX=0;entryY=0.5;entryDx=0;entryDy=0;exitPerimeter=0;" edge="1" parent="1" source="AIyhHVRQRcBTdbYzzXI3-5" target="R5wTr4oMpr8X-MJHOzSV-3">
          <mxGeometry width="50" height="50" relative="1" as="geometry">
            <mxPoint x="151" y="220" as="sourcePoint" />
            <mxPoint x="260" y="175" as="targetPoint" />
          </mxGeometry>
        </mxCell>
        <mxCell id="R5wTr4oMpr8X-MJHOzSV-8" value="Counslut the changes" style="ellipse;whiteSpace=wrap;html=1;" vertex="1" parent="1">
          <mxGeometry x="240" y="350" width="240" height="50" as="geometry" />
        </mxCell>
        <mxCell id="R5wTr4oMpr8X-MJHOzSV-9" value="" style="endArrow=none;html=1;rounded=0;exitX=0.96;exitY=0.5;exitDx=0;exitDy=0;entryX=0;entryY=0.5;entryDx=0;entryDy=0;exitPerimeter=0;" edge="1" parent="1" source="AIyhHVRQRcBTdbYzzXI3-10" target="AIyhHVRQRcBTdbYzzXI3-22">
          <mxGeometry width="50" height="50" relative="1" as="geometry">
            <mxPoint x="126" y="305" as="sourcePoint" />
            <mxPoint x="250" y="300" as="targetPoint" />
          </mxGeometry>
        </mxCell>
        <mxCell id="R5wTr4oMpr8X-MJHOzSV-10" value="" style="endArrow=none;html=1;rounded=0;exitX=0.96;exitY=0.5;exitDx=0;exitDy=0;entryX=0;entryY=0.5;entryDx=0;entryDy=0;exitPerimeter=0;" edge="1" parent="1" source="AIyhHVRQRcBTdbYzzXI3-10" target="R5wTr4oMpr8X-MJHOzSV-8">
          <mxGeometry width="50" height="50" relative="1" as="geometry">
            <mxPoint x="127" y="430" as="sourcePoint" />
            <mxPoint x="250" y="465" as="targetPoint" />
          </mxGeometry>
        </mxCell>
      </root>
    </mxGraphModel>
  </diagram>
</mxfile>
